<mxfile host="app.diagrams.net" agent="Mozilla/5.0 (Windows NT 10.0; Win64; x64) AppleWebKit/537.36 (KHTML, like Gecko) Chrome/127.0.0.0 Safari/537.36" version="24.7.5">
  <diagram name="Página-1" id="GhrRubBGRkK7RPhNbyWR">
    <mxGraphModel dx="2427" dy="706" grid="1" gridSize="10" guides="1" tooltips="1" connect="1" arrows="1" fold="1" page="1" pageScale="1" pageWidth="827" pageHeight="1169" math="0" shadow="0">
      <root>
        <mxCell id="0" />
        <mxCell id="1" parent="0" />
        <mxCell id="NCxaAkP3EiYdcy-wrJai-23" style="edgeStyle=orthogonalEdgeStyle;curved=1;rounded=0;orthogonalLoop=1;jettySize=auto;html=1;entryX=0;entryY=0.5;entryDx=0;entryDy=0;" edge="1" parent="1" source="NCxaAkP3EiYdcy-wrJai-1" target="NCxaAkP3EiYdcy-wrJai-4">
          <mxGeometry relative="1" as="geometry" />
        </mxCell>
        <mxCell id="NCxaAkP3EiYdcy-wrJai-24" style="edgeStyle=orthogonalEdgeStyle;curved=1;rounded=0;orthogonalLoop=1;jettySize=auto;html=1;entryX=1;entryY=0.5;entryDx=0;entryDy=0;" edge="1" parent="1" source="NCxaAkP3EiYdcy-wrJai-1" target="NCxaAkP3EiYdcy-wrJai-2">
          <mxGeometry relative="1" as="geometry" />
        </mxCell>
        <mxCell id="NCxaAkP3EiYdcy-wrJai-25" style="edgeStyle=orthogonalEdgeStyle;curved=1;rounded=0;orthogonalLoop=1;jettySize=auto;html=1;entryX=0.5;entryY=0;entryDx=0;entryDy=0;" edge="1" parent="1" source="NCxaAkP3EiYdcy-wrJai-1" target="NCxaAkP3EiYdcy-wrJai-3">
          <mxGeometry relative="1" as="geometry" />
        </mxCell>
        <mxCell id="NCxaAkP3EiYdcy-wrJai-1" value="&lt;span style=&quot;font-size:11.0pt;line-height:107%;&lt;br/&gt;font-family:&amp;quot;Calibri&amp;quot;,sans-serif;mso-ascii-theme-font:minor-latin;mso-fareast-font-family:&lt;br/&gt;Calibri;mso-fareast-theme-font:minor-latin;mso-hansi-theme-font:minor-latin;&lt;br/&gt;mso-bidi-font-family:&amp;quot;Times New Roman&amp;quot;;mso-bidi-theme-font:minor-bidi;&lt;br/&gt;mso-ansi-language:ES-CO;mso-fareast-language:EN-US;mso-bidi-language:AR-SA&quot;&gt;Caso Plataforma&lt;br&gt;Petrolera de British Petroleum (BP)&lt;/span&gt;" style="rounded=1;whiteSpace=wrap;html=1;" vertex="1" parent="1">
          <mxGeometry x="237.5" y="270" width="325" height="60" as="geometry" />
        </mxCell>
        <mxCell id="NCxaAkP3EiYdcy-wrJai-11" style="edgeStyle=orthogonalEdgeStyle;rounded=0;orthogonalLoop=1;jettySize=auto;html=1;entryX=1;entryY=0.75;entryDx=0;entryDy=0;curved=1;" edge="1" parent="1" source="NCxaAkP3EiYdcy-wrJai-2" target="NCxaAkP3EiYdcy-wrJai-5">
          <mxGeometry relative="1" as="geometry" />
        </mxCell>
        <mxCell id="NCxaAkP3EiYdcy-wrJai-12" style="edgeStyle=orthogonalEdgeStyle;rounded=0;orthogonalLoop=1;jettySize=auto;html=1;entryX=1;entryY=0.75;entryDx=0;entryDy=0;curved=1;" edge="1" parent="1" source="NCxaAkP3EiYdcy-wrJai-2" target="NCxaAkP3EiYdcy-wrJai-6">
          <mxGeometry relative="1" as="geometry" />
        </mxCell>
        <mxCell id="NCxaAkP3EiYdcy-wrJai-13" style="edgeStyle=orthogonalEdgeStyle;rounded=0;orthogonalLoop=1;jettySize=auto;html=1;entryX=1;entryY=0.5;entryDx=0;entryDy=0;curved=1;" edge="1" parent="1" source="NCxaAkP3EiYdcy-wrJai-2" target="NCxaAkP3EiYdcy-wrJai-7">
          <mxGeometry relative="1" as="geometry" />
        </mxCell>
        <mxCell id="NCxaAkP3EiYdcy-wrJai-14" style="edgeStyle=orthogonalEdgeStyle;rounded=0;orthogonalLoop=1;jettySize=auto;html=1;entryX=1;entryY=0.5;entryDx=0;entryDy=0;curved=1;" edge="1" parent="1" source="NCxaAkP3EiYdcy-wrJai-2" target="NCxaAkP3EiYdcy-wrJai-10">
          <mxGeometry relative="1" as="geometry">
            <mxPoint x="40" y="370" as="targetPoint" />
          </mxGeometry>
        </mxCell>
        <mxCell id="NCxaAkP3EiYdcy-wrJai-2" value="Causas" style="rounded=1;whiteSpace=wrap;html=1;" vertex="1" parent="1">
          <mxGeometry x="50" y="190" width="120" height="60" as="geometry" />
        </mxCell>
        <mxCell id="NCxaAkP3EiYdcy-wrJai-31" style="edgeStyle=orthogonalEdgeStyle;curved=1;rounded=0;orthogonalLoop=1;jettySize=auto;html=1;entryX=0;entryY=0.5;entryDx=0;entryDy=0;" edge="1" parent="1" source="NCxaAkP3EiYdcy-wrJai-3" target="NCxaAkP3EiYdcy-wrJai-30">
          <mxGeometry relative="1" as="geometry" />
        </mxCell>
        <mxCell id="NCxaAkP3EiYdcy-wrJai-3" value="Consecuencias" style="rounded=1;whiteSpace=wrap;html=1;" vertex="1" parent="1">
          <mxGeometry x="340" y="400" width="120" height="60" as="geometry" />
        </mxCell>
        <mxCell id="NCxaAkP3EiYdcy-wrJai-19" style="edgeStyle=orthogonalEdgeStyle;rounded=0;orthogonalLoop=1;jettySize=auto;html=1;entryX=0;entryY=0.5;entryDx=0;entryDy=0;curved=1;" edge="1" parent="1" source="NCxaAkP3EiYdcy-wrJai-4" target="NCxaAkP3EiYdcy-wrJai-15">
          <mxGeometry relative="1" as="geometry" />
        </mxCell>
        <mxCell id="NCxaAkP3EiYdcy-wrJai-20" style="edgeStyle=orthogonalEdgeStyle;rounded=0;orthogonalLoop=1;jettySize=auto;html=1;entryX=0;entryY=0.5;entryDx=0;entryDy=0;curved=1;" edge="1" parent="1" source="NCxaAkP3EiYdcy-wrJai-4" target="NCxaAkP3EiYdcy-wrJai-16">
          <mxGeometry relative="1" as="geometry" />
        </mxCell>
        <mxCell id="NCxaAkP3EiYdcy-wrJai-21" style="edgeStyle=orthogonalEdgeStyle;rounded=0;orthogonalLoop=1;jettySize=auto;html=1;entryX=0;entryY=0.75;entryDx=0;entryDy=0;curved=1;" edge="1" parent="1" source="NCxaAkP3EiYdcy-wrJai-4" target="NCxaAkP3EiYdcy-wrJai-17">
          <mxGeometry relative="1" as="geometry" />
        </mxCell>
        <mxCell id="NCxaAkP3EiYdcy-wrJai-22" style="edgeStyle=orthogonalEdgeStyle;rounded=0;orthogonalLoop=1;jettySize=auto;html=1;entryX=0;entryY=0.5;entryDx=0;entryDy=0;curved=1;" edge="1" parent="1" source="NCxaAkP3EiYdcy-wrJai-4" target="NCxaAkP3EiYdcy-wrJai-18">
          <mxGeometry relative="1" as="geometry" />
        </mxCell>
        <mxCell id="NCxaAkP3EiYdcy-wrJai-4" value="Observaciones" style="rounded=1;whiteSpace=wrap;html=1;" vertex="1" parent="1">
          <mxGeometry x="630" y="190" width="120" height="60" as="geometry" />
        </mxCell>
        <mxCell id="NCxaAkP3EiYdcy-wrJai-5" value="&lt;span style=&quot;font-size:11.0pt;line-height:107%;&lt;br/&gt;font-family:&amp;quot;Calibri&amp;quot;,sans-serif;mso-ascii-theme-font:minor-latin;mso-fareast-font-family:&lt;br/&gt;Calibri;mso-fareast-theme-font:minor-latin;mso-hansi-theme-font:minor-latin;&lt;br/&gt;mso-bidi-font-family:&amp;quot;Times New Roman&amp;quot;;mso-bidi-theme-font:minor-bidi;&lt;br/&gt;mso-ansi-language:ES-CO;mso-fareast-language:EN-US;mso-bidi-language:AR-SA&quot;&gt;Fallos&lt;br&gt;mecánicos&lt;/span&gt;" style="rounded=1;whiteSpace=wrap;html=1;" vertex="1" parent="1">
          <mxGeometry x="-120" y="60" width="100" height="60" as="geometry" />
        </mxCell>
        <mxCell id="NCxaAkP3EiYdcy-wrJai-6" value="Errores Humanos" style="rounded=1;whiteSpace=wrap;html=1;" vertex="1" parent="1">
          <mxGeometry x="-160" y="150" width="120" height="60" as="geometry" />
        </mxCell>
        <mxCell id="NCxaAkP3EiYdcy-wrJai-7" value="Problemas de diseño y construccion" style="rounded=1;whiteSpace=wrap;html=1;" vertex="1" parent="1">
          <mxGeometry x="-160" y="240" width="120" height="60" as="geometry" />
        </mxCell>
        <mxCell id="NCxaAkP3EiYdcy-wrJai-10" value="&lt;span style=&quot;font-size:11.0pt;line-height:107%;&lt;br/&gt;font-family:&amp;quot;Calibri&amp;quot;,sans-serif;mso-ascii-theme-font:minor-latin;mso-fareast-font-family:&lt;br/&gt;Calibri;mso-fareast-theme-font:minor-latin;mso-hansi-theme-font:minor-latin;&lt;br/&gt;mso-bidi-font-family:&amp;quot;Times New Roman&amp;quot;;mso-bidi-theme-font:minor-bidi;&lt;br/&gt;mso-ansi-language:ES-CO;mso-fareast-language:EN-US;mso-bidi-language:AR-SA&quot;&gt;Fallos&lt;br&gt;en la supervisión y regulación&lt;/span&gt;" style="rounded=1;whiteSpace=wrap;html=1;" vertex="1" parent="1">
          <mxGeometry x="-170" y="330" width="150" height="80" as="geometry" />
        </mxCell>
        <mxCell id="NCxaAkP3EiYdcy-wrJai-15" value="&lt;span style=&quot;font-size:11.0pt;line-height:107%;&lt;br/&gt;font-family:&amp;quot;Calibri&amp;quot;,sans-serif;mso-ascii-theme-font:minor-latin;mso-fareast-font-family:&lt;br/&gt;Calibri;mso-fareast-theme-font:minor-latin;mso-hansi-theme-font:minor-latin;&lt;br/&gt;mso-bidi-font-family:&amp;quot;Times New Roman&amp;quot;;mso-bidi-theme-font:minor-bidi;&lt;br/&gt;mso-ansi-language:ES-CO;mso-fareast-language:EN-US;mso-bidi-language:AR-SA&quot;&gt;Impactos&lt;br&gt;ambientales&lt;/span&gt;" style="rounded=1;whiteSpace=wrap;html=1;" vertex="1" parent="1">
          <mxGeometry x="827" y="60" width="120" height="60" as="geometry" />
        </mxCell>
        <mxCell id="NCxaAkP3EiYdcy-wrJai-16" value="&lt;span style=&quot;font-size:11.0pt;line-height:107%;&lt;br/&gt;font-family:&amp;quot;Calibri&amp;quot;,sans-serif;mso-ascii-theme-font:minor-latin;mso-fareast-font-family:&lt;br/&gt;Calibri;mso-fareast-theme-font:minor-latin;mso-hansi-theme-font:minor-latin;&lt;br/&gt;mso-bidi-font-family:&amp;quot;Times New Roman&amp;quot;;mso-bidi-theme-font:minor-bidi;&lt;br/&gt;mso-ansi-language:ES-CO;mso-fareast-language:EN-US;mso-bidi-language:AR-SA&quot;&gt;Impactos&lt;br&gt;económicos&lt;/span&gt;" style="rounded=1;whiteSpace=wrap;html=1;" vertex="1" parent="1">
          <mxGeometry x="850" y="160" width="120" height="60" as="geometry" />
        </mxCell>
        <mxCell id="NCxaAkP3EiYdcy-wrJai-17" value="&lt;span style=&quot;font-size:11.0pt;line-height:107%;&lt;br/&gt;font-family:&amp;quot;Calibri&amp;quot;,sans-serif;mso-ascii-theme-font:minor-latin;mso-fareast-font-family:&lt;br/&gt;Calibri;mso-fareast-theme-font:minor-latin;mso-hansi-theme-font:minor-latin;&lt;br/&gt;mso-bidi-font-family:&amp;quot;Times New Roman&amp;quot;;mso-bidi-theme-font:minor-bidi;&lt;br/&gt;mso-ansi-language:ES-CO;mso-fareast-language:EN-US;mso-bidi-language:AR-SA&quot;&gt;Impactos&lt;br&gt;sociales y de salud&lt;/span&gt;" style="rounded=1;whiteSpace=wrap;html=1;" vertex="1" parent="1">
          <mxGeometry x="850" y="280" width="120" height="60" as="geometry" />
        </mxCell>
        <mxCell id="NCxaAkP3EiYdcy-wrJai-18" value="&lt;span style=&quot;font-size:11.0pt;line-height:107%;&lt;br/&gt;font-family:&amp;quot;Calibri&amp;quot;,sans-serif;mso-ascii-theme-font:minor-latin;mso-fareast-font-family:&lt;br/&gt;Calibri;mso-fareast-theme-font:minor-latin;mso-hansi-theme-font:minor-latin;&lt;br/&gt;mso-bidi-font-family:&amp;quot;Times New Roman&amp;quot;;mso-bidi-theme-font:minor-bidi;&lt;br/&gt;mso-ansi-language:ES-CO;mso-fareast-language:EN-US;mso-bidi-language:AR-SA&quot;&gt;Consecuencias&lt;br&gt;legales y de reputación&lt;/span&gt;" style="rounded=1;whiteSpace=wrap;html=1;" vertex="1" parent="1">
          <mxGeometry x="827" y="380" width="120" height="60" as="geometry" />
        </mxCell>
        <mxCell id="NCxaAkP3EiYdcy-wrJai-34" style="edgeStyle=orthogonalEdgeStyle;curved=1;rounded=0;orthogonalLoop=1;jettySize=auto;html=1;entryX=0;entryY=0.5;entryDx=0;entryDy=0;" edge="1" parent="1" source="NCxaAkP3EiYdcy-wrJai-26" target="NCxaAkP3EiYdcy-wrJai-3">
          <mxGeometry relative="1" as="geometry" />
        </mxCell>
        <mxCell id="NCxaAkP3EiYdcy-wrJai-26" value="&lt;span style=&quot;font-size:11.0pt;line-height:115%;&lt;br/&gt;font-family:&amp;quot;Calibri&amp;quot;,sans-serif;mso-fareast-font-family:Calibri;mso-bidi-font-family:&lt;br/&gt;&amp;quot;Times New Roman&amp;quot;;mso-ansi-language:ES-CO;mso-fareast-language:EN-US;&lt;br/&gt;mso-bidi-language:AR-SA&quot;&gt;La combinación de factores técnicos, humanos y de&lt;br&gt;gestión contribuyó al accidente&lt;/span&gt;" style="rounded=1;whiteSpace=wrap;html=1;" vertex="1" parent="1">
          <mxGeometry x="-110" y="535" width="232.5" height="115" as="geometry" />
        </mxCell>
        <mxCell id="NCxaAkP3EiYdcy-wrJai-33" style="edgeStyle=orthogonalEdgeStyle;curved=1;rounded=0;orthogonalLoop=1;jettySize=auto;html=1;" edge="1" parent="1" source="NCxaAkP3EiYdcy-wrJai-27" target="NCxaAkP3EiYdcy-wrJai-3">
          <mxGeometry relative="1" as="geometry" />
        </mxCell>
        <mxCell id="NCxaAkP3EiYdcy-wrJai-27" value="&lt;span style=&quot;font-size:11.0pt;line-height:115%;&lt;br/&gt;font-family:&amp;quot;Calibri&amp;quot;,sans-serif;mso-fareast-font-family:Calibri;mso-bidi-font-family:&lt;br/&gt;&amp;quot;Times New Roman&amp;quot;;mso-ansi-language:ES-CO;mso-fareast-language:EN-US;&lt;br/&gt;mso-bidi-language:AR-SA&quot;&gt;La falta de cumplimiento de las normativas de&lt;br/&gt;seguridad y la presión por reducir costos y tiempo fueron determinantes en la&lt;br/&gt;catástrofe&lt;/span&gt;" style="rounded=1;whiteSpace=wrap;html=1;" vertex="1" parent="1">
          <mxGeometry x="90" y="700" width="262.5" height="150" as="geometry" />
        </mxCell>
        <mxCell id="NCxaAkP3EiYdcy-wrJai-32" style="edgeStyle=orthogonalEdgeStyle;curved=1;rounded=0;orthogonalLoop=1;jettySize=auto;html=1;" edge="1" parent="1" source="NCxaAkP3EiYdcy-wrJai-29">
          <mxGeometry relative="1" as="geometry">
            <mxPoint x="400" y="470" as="targetPoint" />
          </mxGeometry>
        </mxCell>
        <mxCell id="NCxaAkP3EiYdcy-wrJai-29" value="&lt;span style=&quot;font-size:11.0pt;line-height:115%;&lt;br/&gt;font-family:&amp;quot;Calibri&amp;quot;,sans-serif;mso-fareast-font-family:Calibri;mso-bidi-font-family:&lt;br/&gt;&amp;quot;Times New Roman&amp;quot;;mso-ansi-language:ES-CO;mso-fareast-language:EN-US;&lt;br/&gt;mso-bidi-language:AR-SA&quot;&gt;Este caso resalta la importancia de una adecuada&lt;br&gt;gestión de riesgos, la rigurosa aplicación de normas de seguridad y una&lt;br&gt;supervisión efectiva para prevenir desastres industriales&lt;/span&gt;" style="rounded=1;whiteSpace=wrap;html=1;" vertex="1" parent="1">
          <mxGeometry x="410" y="670" width="220" height="180" as="geometry" />
        </mxCell>
        <mxCell id="NCxaAkP3EiYdcy-wrJai-30" value="&lt;span style=&quot;font-size:11.0pt;line-height:115%;&lt;br/&gt;font-family:&amp;quot;Calibri&amp;quot;,sans-serif;mso-fareast-font-family:Calibri;mso-bidi-font-family:&lt;br/&gt;&amp;quot;Times New Roman&amp;quot;;mso-ansi-language:ES-CO;mso-fareast-language:EN-US;&lt;br/&gt;mso-bidi-language:AR-SA&quot;&gt;La respuesta y recuperación post-accidente también&lt;br&gt;subraya la necesidad de planes de contingencia robustos y una cooperación&lt;br&gt;eficiente entre la industria, el gobierno y la sociedad para mitigar los&lt;br&gt;impactos de tales eventos&lt;/span&gt;" style="rounded=1;whiteSpace=wrap;html=1;" vertex="1" parent="1">
          <mxGeometry x="680" y="570" width="260" height="210" as="geometry" />
        </mxCell>
        <mxCell id="NCxaAkP3EiYdcy-wrJai-36" value="SENA CTPI&amp;nbsp; - TECNICO IA - FICHA: 2993008 - YEIMY MENDEZ" style="text;html=1;align=center;verticalAlign=middle;whiteSpace=wrap;rounded=0;" vertex="1" parent="1">
          <mxGeometry x="140" y="10" width="460" height="30" as="geometry" />
        </mxCell>
      </root>
    </mxGraphModel>
  </diagram>
</mxfile>
